<?xml version="1.0" encoding="UTF-8"?><svg id="Layer_1" xmlns="http://www.w3.org/2000/svg" viewBox="0 0 220 82"><path d="M11.31,49.49c-.48,0-.9-.18-1.27-.54-.9,1.99-1.6,3.65-2.08,4.97,0-.18-.18-.66-.54-1.45-.84,2.95-1.51,5.37-1.99,7.23-2.29-1.93-3.43-3.07-3.43-3.43,0-1.81,1.33-4.49,3.97-8.04,1.69-2.29,3.19-4.25,4.52-5.87h1.35c-.72,1.2-1.08,2.05-1.08,2.53,0,.24.2.54.59.91.39.36.59.75.59,1.17-.42.54-.63,1.38-.63,2.53ZM36.41,39.28c-2.53-2.04-5.33-3.06-8.4-3.06-4.21,0-8.82,1.38-13.82,4.15,1.03,1.44,1.75,2.56,2.17,3.34,2.72-1.58,4.2-2.44,4.44-2.56,2.29-1.22,4.95-1.83,7.97-1.83,2.53,0,4.74.66,6.61,1.98,2.17,1.5,3.07,3.46,2.72,5.87-.06,2.65-1.09,5.06-3.1,7.22-2.01,2.16-4.35,3.25-7.02,3.25-1.52,0-2.52-.27-3.01-.81-.79-.89-1.49-1.46-2.1-1.7v-3.95c2.71-1.73,4.06-3.35,4.06-4.85,0-.42-.21-.63-.64-.63-.12,0-.56.27-1.32.81-.75.54-1.31.75-1.68.63-.12.24-.7,1.23-1.72,2.97-.85,1.44-1.27,2.4-1.27,2.88,0,.55.18,1.34.54,2.39.36,1.05.57,1.79.63,2.21.06,0,.78.3,2.17.9,1.38.6,2.77.9,4.16.9.48,0,1.2-.06,2.17-.18.96-.12,1.68-.18,2.17-.18.06-.72.36-1.14.9-1.26,1.02-.24,2.05-.69,3.07-1.35l2.44-3.88c1.2-1.92,1.81-3.76,1.81-5.5,0-2.95-1.33-5.53-3.97-7.75ZM114.03,1.6h-2.35c-.54,0-1.36.32-2.44.95-1.09.63-1.84,1.19-2.26,1.67-2.59.6-4.46,1.12-5.6,1.54.18.3.27.54.27.72,0,.48-.66.72-1.99.72,0,.6-.09.96-.27,1.08-.06,0-.18-.04-.36-.14-.18-.09-.36-.13-.54-.13-1.51,0-5.54,2.8-12.11,8.4l-13.73,11.75c0,.9-.03,1.48-.09,1.71-1.75,1.33-3.07,2.23-3.98,2.71-2.29,2.65-3.89,4.52-4.79,5.6-2.17,2.41-3.83,4.22-4.97,5.42-2.71,2.89-4.55,4.4-5.51,4.51-.18,0-.45.05-.81.14-.36.09-.63.14-.81.14-.36,0-.87-.11-1.54-.32-.66-.21-1.11-.32-1.36-.32l-4.61.99c.48,1.09,1.05,1.63,1.71,1.63.36,0,.93-.09,1.71-.27.78-.18,1.35-.27,1.71-.27.3,0,.79.22,1.48.66.69.44,1.06.81,1.12,1.1-7.04,7.6-11.53,12.24-13.45,13.92-6.19,5.62-11.75,8.85-16.68,9.7.48.9,1.02,1.36,1.63,1.36,1.08,0,3.43-.75,7.05-2.26l6.69-2.8c-.18-.73.27-1.39,1.35-1.99,1.5-.85,2.32-1.36,2.44-1.54,6.14-6.08,10.78-10.75,13.91-14.01,3.25-2.59,5.3-3.89,6.14-3.89.42,0,1.05.05,1.9.14.84.09,1.47.13,1.9.13.54,0,1.36-.13,2.44-.41,1.08-.27,1.9-.41,2.44-.41.42,0,.63.42.63,1.27-.06-.06-.45-.09-1.17-.09.48,1.08.87,1.9,1.17,2.44-.24.36-.51.57-.81.63-.3.12-.45.06-.45-.18-1.63,1.69-2.94,3.96-3.93,6.82-.99,2.86-1.49,5.55-1.49,8.07,0,2.71.27,4.75.81,6.14.36.66.69,1.32,1,1.98l1.62,1.36c.72.6,1.02,1.17.9,1.72h2.89c.24,0,.41.11.5.33.09.23.26.34.5.34,1.38,0,2.56-.39,3.52-1.17.6-.48,1.41-1.45,2.44-2.9,0-.36-.57-.54-1.72-.54.18.58-.42,1.11-1.81,1.58-1.14.41-2.08.61-2.8.61-1.45,0-2.62-.45-3.52-1.35-.12-2.47.3-5.14,1.27-8.03,1.08-3.12,2.5-5.35,4.25-6.67,2.04-5.23,4.33-8.9,6.86-11.01-.12-.54.21-1.29.99-2.25.42-.42.87-.85,1.35-1.27.3-.54,1.12-2.37,2.44-5.5.84-2.04,1.87-2.89,3.07-2.53,0-3.73.39-6.13,1.18-7.22.54.18.9.57,1.08,1.17.06.18.15.75.27,1.72.42-.66,1.68-2.17,3.79-4.52,1.81-2.05,2.92-3.66,3.34-4.83.42-1.17.63-3.17.63-6.01,0-.96-.15-1.57-.45-1.81-1.93,1.32-3.7,2.98-5.33,4.97-1.02,1.21-2.29,3.01-3.79,5.42l-17.35,20.15c-.54-.6-1.11-.9-1.72-.9-.24,0-.54.15-.9.45-.36.3-.63.45-.81.45-3.31,0-5.42-.09-6.32-.27.18-1.39,1.41-3.25,3.7-5.6,2.17-2.17,3.16-3.61,2.98-4.34.3,0,.57.12.81.36.06-.72.6-1.66,1.63-2.8,1.44-1.62,2.5-3.07,3.16-4.34,0,.18-.03-.03-.09-.63,0-.36.15-.69.45-.99.3.54.39,1.02.27,1.45,8.13-10.46,16.41-17.61,24.85-21.46,0-.66-.03-1.05-.09-1.17.36.21.66.32.9.32.42,0,1.75-.59,3.98-1.76,2.23-1.17,3.4-1.76,3.52-1.76.36,0,.69.15.99.45-2.47,2.47-4.13,4.16-4.97,5.06-3.25,3.49-4.88,6.2-4.88,8.13,0,1.26.33,2.53.99,3.79.96-2.53,1.66-4.46,2.08-5.78.36.73.48,1.3.36,1.72.96-.9,3.04-3.28,6.23-7.14,3.8-4.58,5.69-7.38,5.69-8.4,0-.78-.12-1.32-.36-1.63ZM71.03,52.65l-.27.36.9.72.27-.36-.9-.72Z" style="fill:#c1272d;"/><path d="M97.16,55.63c-.78.91-1.78,2.68-2.98,5.32-1.2,2.65-2.23,4.48-3.07,5.51-1.57,1.93-3.25,2.89-5.06,2.89-2.35,0-3.52-.66-3.52-1.99,0-1.5,1.76-4.17,5.28-7.99,3.52-3.82,6.01-5.73,7.45-5.73h1.9v1.99ZM91.92,52.2l-.36,2.08h-.63l.36-2.08h.63ZM154.62,38.83c-1.45,2.89-4.16,6.76-8.13,11.61-3.98,4.85-6.66,8.63-8.04,11.34-.18-.06-.69-.3-1.54-.72-.96,1.51-1.92,2.93-2.89,4.26-1.81,2.42-3.62,3.63-5.42,3.63-.12,0-.91-.37-2.35-1.12-.42.43-.63.81-.63,1.12h-1.63c-.36-.48-.83-1.58-1.4-3.3-.57-1.72-.86-2.88-.86-3.48,0-1.57.3-3.17.9-4.8,1.51-.6,2.68-1.71,3.53-3.34.84-1.63,1.2-3.29,1.08-4.98.66-.42,1.29-1.11,1.9-2.08.6-.96.91-1.81.91-2.53,0-.24-.03-.48-.09-.72,1.39-.6,2.62-1.72,3.7-3.35,1.44-2.17,2.23-3.32,2.35-3.44,0-.24-.51-.63-1.54-1.18-3.13,2.65-6.63,6.15-10.48,10.48-3.19,3.73-6.41,7.47-9.66,11.2-.12.85-1.09,2.83-2.89,5.96-1.99,3.43-3.52,5.15-4.61,5.15-.18,0-.41-.06-.68-.18-.27-.12-.5-.18-.68-.18s-.35.12-.5.38c-.15.25-.35.38-.59.38h-3.25c-.3-.3-.45-.76-.45-1.36,0-.18.54-1.16,1.63-2.94,1.08-1.78,1.63-3.18,1.63-4.21,1.08-.12,2.38-1.39,3.88-3.8,1.14-1.87,2.02-3.59,2.62-5.16h2.35c-.36.54-.54,1.11-.54,1.72,0,.54.15,1.06.45,1.54.72-.06,1.08-.66,1.08-1.81v-1.45c0-1.14.21-2.05.63-2.71.36.48.75.72,1.18.72.18,0,.36-.03.54-.09.12-.96-.18-1.44-.9-1.44h-.99c-.66,0-1.18-.21-1.54-.63,2.17-3.07,4.13-6.35,5.87-9.85-.12-.12-.24-.18-.36-.18.18,0-.54.27-2.17.81-.12-.12-.24-.18-.36-.18-.24,0-.36.21-.36.63-.12,0-.54-.36-1.26-1.08l-7.5,7.95c-2.89,3.07-5.9,5.9-9.04,8.49.42-.42.9-.63,1.45-.63-.18-1.69.03-3.04.63-4.06-.3,0-.87-.09-1.72-.27-.78-.18-1.39-.18-1.81,0,0-.12.07-.41.22-.86.15-.45.23-.8.23-1.04,0-.72-.39-1.33-1.18-1.81,1.38-1.81,2.8-4.13,4.25-6.96,1.08-2.17,2.11-3.61,3.07-4.34,1.26-.97,3.34-1.45,6.23-1.45.24,0,.51.08.81.23.3.15.48.23.54.23v2.35c-.24,0-.69.36-1.35,1.08l.36,2.08c.66-.06,2.38-1.05,5.15-2.98,2.77-1.93,4.34-2.89,4.7-2.89h6.5c-.24.36-.36.87-.36,1.54,0,.48.07,1.17.23,2.08.15.9.23,1.6.23,2.08.18.18.57.27,1.18.27l4.7-3.19c3.07-2.13,5.45-3.19,7.14-3.19s2.94.29,3.57.86c.63.58.95,1.71.95,3.4,0,1.03-.35,2.28-1.04,3.76-.69,1.48-1.43,2.46-2.21,2.95-.12.97-2.48,4.79-7.09,11.48-4.61,6.68-6.91,10.35-6.91,11.02,0,1.03.72,1.54,2.17,1.54,1.15,0,2.62-1.07,4.43-3.2.66-.79,1.9-2.22,3.7-4.3.42.48.72.72.9.72.42-1.51,1.36-3.25,2.8-5.24,1.75-2.53,2.83-4.21,3.25-5.06,1.44-1.02,3.49-3.22,6.14-6.59,2.35-2.95,4.1-4.52,5.24-4.7ZM106.37,41.13c0-.49-.63-2.03-1.9-4.65-1.33,2-1.99,3.13-1.99,3.37,0,.37.21.91.63,1.64.48.97.75,1.55.81,1.73h1.72c.48-1.27.72-1.97.72-2.09ZM108.72,39.46l-.54-.18-.45.9.45.27.54-.99Z" style="fill:#c1272d;"/><path d="M172.41,51.57c0,.24-.06.59-.18,1.04-.12.45-.18.8-.18,1.04-.6-.06-1.36.12-2.26.54-.91.42-1.45.63-1.63.63s-.45-.06-.81-.18c-.36-.12-.63-.18-.81-.18-.06,0-2.16,2.14-6.28,6.41-4.12,4.28-6.43,6.41-6.91,6.41-.72,0-1.44-.72-2.17-2.17.3.12.57.18.81.18.96,0,2.29-1.23,3.98-3.7,1.93-2.77,3.37-4.51,4.34-5.24v-2.35c-.18-.24-.63-.36-1.36-.36-.18-.84-.59-2.14-1.22-3.88-.63-1.75-.86-3.22-.68-4.43,1.99-1.21,3.64-1.96,4.97-2.26.18,1.15.85,2.32,1.99,3.52-.42.36-1.54.81-3.34,1.36-1.33.42-2.05,1.27-2.17,2.53,1.33.9,2.3,1.36,2.9,1.36,1.45,0,3.11-2.17,4.99-6.52,1.57-3.68,2.36-6.03,2.36-7.06,0-1.63-.33-2.62-1-2.99-.3-.18-1.12-.27-2.45-.27-3.27,0-6.26,2.93-8.99,8.79.18-.48.09-1.08-.27-1.81-.67.96-2.12,3.43-4.36,7.39-2,3.55-3.78,6.04-5.35,7.48-.67.54-1.3,2.01-1.91,4.42-.48,2.05-.73,3.49-.73,4.33v2.08c0,.66.72.99,2.17.99,2.1,0,3.16-.41,3.16-1.22v-.44c.24,0,.6.15,1.08.45.48.3.84.45,1.08.45-1.03,1.02-1.83,1.64-2.4,1.89-.58.24-1.62.36-3.13.36-1.69,0-3.2-.33-4.53-.99-1.69-.84-2.54-2.02-2.54-3.52,0-.6.38-1.74,1.16-3.43.77-1.69,1.15-2.83,1.15-3.43,0-.9-.06-1.5-.18-1.8-.54.42-1.11,2.14-1.72,5.15-.12,0-.35.06-.68.18-.33.12-.56.18-.68.18v-1.54c0-.42.24-1.35.72-2.8.48-1.45.72-2.56.72-3.34.6,0,1.27.36,1.99,1.08.6-.84,1.51-2.35,2.71-4.52.84-1.45,2.2-2.71,4.06-3.8-.12-.48-.18-1-.18-1.54,0-3.2,2.16-6.24,6.5-9.13,3.79-2.53,7.19-3.8,10.2-3.8,4.63,0,6.95,1.87,6.95,5.6,0,1.15-.42,3.23-1.25,6.24l-1.34,4.88c0,1.03.33,1.81.99,2.35.18-.06.51-.27.99-.63h1.72ZM147.11,52.47c-.62-.6-1.02-.93-1.2-.99-.06,0-.12.03-.18.09-.06.06-.19.09-.37.09-.12,0-.31-.03-.56-.09-.43-.06-.8,0-1.11.18.18.06.46.45.83,1.17.25.48.86.72,1.85.72,0-.3.25-.69.74-1.17ZM151.54,42.72l-.18-.45-1.63.81v.45l1.81-.81ZM183.34,43.08c-5.06,5.6-8.04,8.4-8.94,8.4-.24,0-.57-.08-.99-.23-.42-.15-.75-.23-.99-.23,1.2-.6,2.2-.9,2.98-.9-.12-.66.92-2.12,3.11-4.38,2.2-2.26,3.36-3.72,3.48-4.38.6,0,1.05.12,1.36.36v1.35Z" style="fill:#c1272d;"/><path d="M215.83,3.32c0,.48-.66,1.9-1.99,4.25-1.33,2.35-2.26,3.86-2.8,4.52-.42-.12-1.14-.72-2.17-1.81-.3.24-.72.58-1.27.99v1c.48.24,1.2.57,2.17.99-.3,1.03-.75,2.14-1.35,3.35-.91,1.81-1.72,2.71-2.44,2.71-.18,0-.47-.06-.86-.18-.39-.12-.68-.18-.86-.18-.42.6-.72,1.72-.9,3.34-.24,1.87-.39,2.95-.45,3.25-.24.78-.81,1.72-1.72,2.8-.9,1.08-1.45,2.02-1.63,2.8-.18,0-.42-.06-.72-.18-.3-.12-.54-.18-.72-.18-.36.36-.54.69-.54.99,0,.18.11.47.32.86.21.39.32.71.32.95-.24.3-.84.45-1.81.45-.24,3.49-2.17,5.84-5.78,7.05.3.6.81,1.45,1.54,2.53-.42.9-1.21,2.26-2.35,4.06-1.02.78-2.11,1.99-3.25,3.61-.42-.48-.97-.72-1.63-.72-1.2,0-2.29.9-3.25,2.71.06.18.24.48.54.9.9-.66,2.26-1.48,4.07-2.44-.84,1.81-1.27,2.98-1.27,3.52,0,.66.09,1.36.27,2.08-1.63,1.02-2.65,1.72-3.07,2.08-1.38,1.14-2.23,2.17-2.53,3.07-.06-.24-.33-.67-.81-1.31-.48-.63-.72-1.16-.72-1.58-.78.66-1.17,1.33-1.17,1.99,0,.18.24.57.72,1.18.48.6.72,1.05.72,1.35,0,.54-.95,2.17-2.85,4.88-1.9,2.71-3.18,4.33-3.84,4.88-1.39,0-3.31.15-5.78.45-.54-1.09-.81-1.81-.81-2.17,0-.18.54-1.03,1.63-2.53,1.09-1.51,1.66-2.5,1.72-2.98.18-.24,1.3-2.08,3.34-5.51,1.09-1.8,2.08-3.01,2.98-3.61-.06-.12-.09-.3-.09-.54,0-.42.3-1.3.9-2.62.6-1.33,1.06-1.99,1.36-1.99s.57.06.81.18l.36.27c.78-2.47,3.7-7.77,8.77-15.9.24.85.6,2.05,1.08,3.61.42-.42.63-.93.63-1.54v-1.72c.12-.66.57-1.12,1.36-1.35.06-.48-.3-.9-1.09-1.27,2.05-4.21,5.24-10,9.58-17.35,6.2-10.42,10.21-15.63,12.02-15.63.54,0,1.35.06,2.44.18,1.08.12,1.9.18,2.44.18.06,0,.09.03.09.09.24.24.36.63.36,1.17ZM173.91,65.66h-.63v-1.99h.63v1.99ZM178.97,57.71v-1.63h-.63v1.63h.63ZM214.75,51.03c-2.17,2.95-6.96,8.13-14.37,15.54-2.11,2.11-4.19,4.25-6.23,6.41-1.27.9-3.61,1.36-7.05,1.36-.79,0-1.52-.39-2.22-1.18-.69-.78-1.04-1.57-1.04-2.35,0-1.57.72-3.83,2.17-6.77,1.2-2.47,2.29-4.25,3.25-5.33-.72-.72-1.81-1.93-3.25-3.61,1.69-.6,2.89-.9,3.62-.9.3,0,1.05.87,2.26,2.62,1.21,1.75,2.32,2.65,3.34,2.71.06.96-.6,2.8-1.99,5.51-1.63,3.19-2.59,5.51-2.89,6.96.12.12.54.18,1.26.18.9,0,3.52-2.11,7.86-6.32,4.88-4.76,7.83-7.41,8.85-7.95v-1.81c1.08-.96,2.68-2.65,4.79-5.06h1.63ZM194.6,53.65c-.42-.36-.63-.78-.63-1.27,0-.3.09-.63.27-.99-.6,0-1.17.3-1.72.9.54.31.81.69.81,1.18,0,.18-.03.4-.09.63.66,0,1.11-.15,1.35-.45ZM207.97,43.26c-1.45,1.75-3.17,4.31-5.15,7.68-.48-.3-1.44-.66-2.89-1.08-.36.42-.85,1.3-1.45,2.62-.42.91-1.06,1.36-1.9,1.36h-1.54c0-1.26.6-2.79,1.81-4.56,1.2-1.78,1.81-2.76,1.81-2.94.3,0,.69-.24,1.17-.72.12.24.36.61.72,1.08.18-.24.78-.66,1.81-1.27.72-.42,1.08-.93,1.08-1.53,0-.3-.03-.6-.09-.91-1.09,0-2.17.63-3.25,1.9,0-.48-.08-1.16-.23-2.03-.15-.87-.23-1.55-.23-2.03-.12-.18-.6-.27-1.45-.27-1.38,0-2.08.24-2.08.73v.27c.06.12.09.21.09.27,0,.42-.33.7-1,.81.06-.24.29-.63.68-1.17.39-.54.59-.99.59-1.36,0-.24-.12-.78-.36-1.63.36,0,.93-.08,1.72-.23.78-.15,1.36-.23,1.72-.23.06.42.27,1.02.63,1.81,1.14-1.45,2.17-2.17,3.07-2.17,1.51,0,2.35.27,2.53.81.3.84,1.03,1.57,2.17,2.17v2.62ZM201.11,21.85c-.66.06-1.52.74-2.58,2.03-1.06,1.3-1.79,1.94-2.21,1.94-.3,0-.6-.12-.9-.36.9.85,1.9,2.02,2.98,3.52,1.57-.96,2.35-2.11,2.35-3.43,0-.78-.24-1.47-.72-2.08.72-.36,1.08-.9,1.08-1.62ZM203.82,40.46l-.36-2.35h-.63l.36,2.35h.63ZM218,49.04c-.36,0-1.27.63-2.71,1.9l-.45-1.71c.9-.24,1.96-.3,3.16-.18Z" style="fill:#c1272d;"/></svg>